<?xml version="1.0" standalone="no"?>
<!DOCTYPE svg PUBLIC "-//W3C//DTD SVG 20010904//EN"
 "http://www.w3.org/TR/2001/REC-SVG-20010904/DTD/svg10.dtd">
<svg version="1.0" xmlns="http://www.w3.org/2000/svg"
 width="512.000000pt" height="512.000000pt" viewBox="0 0 512.000000 512.000000"
 preserveAspectRatio="xMidYMid meet">

<g transform="translate(0.000000,512.000000) scale(0.100000,-0.100000)"
fill="currentColor" stroke="none">
<path d="M1100 4570 l0 -550 -550 0 -550 0 0 -365 0 -365 915 0 915 0 0 915 0
915 -365 0 -365 0 0 -550z"/>
<path d="M3290 4205 l0 -915 915 0 915 0 0 365 0 365 -550 0 -550 0 0 550 0
550 -365 0 -365 0 0 -915z"/>
<path d="M0 1465 l0 -365 550 0 550 0 0 -550 0 -550 365 0 365 0 0 915 0 915
-915 0 -915 0 0 -365z"/>
<path d="M3290 915 l0 -915 365 0 365 0 0 550 0 550 550 0 550 0 0 365 0 365
-915 0 -915 0 0 -915z"/>
</g>
</svg>
