<?xml version="1.0" standalone="no"?>
<!DOCTYPE svg PUBLIC "-//W3C//DTD SVG 20010904//EN"
 "http://www.w3.org/TR/2001/REC-SVG-20010904/DTD/svg10.dtd">
<svg version="1.0" xmlns="http://www.w3.org/2000/svg"
 width="225.000000pt" height="225.000000pt" viewBox="0 0 225.000000 225.000000"
 preserveAspectRatio="xMidYMid meet">

<g transform="translate(0.000000,225.000000) scale(0.100000,-0.100000)"
fill="currentColor" stroke="none">
<path d="M0 1850 l0 -400 160 0 160 0 0 240 0 240 240 0 240 0 0 160 0 160
-400 0 -400 0 0 -400z"/>
<path d="M1450 2090 l0 -160 240 0 240 0 0 -240 0 -240 160 0 160 0 0 400 0
400 -400 0 -400 0 0 -160z"/>
<path d="M0 400 l0 -400 400 0 400 0 0 160 0 160 -240 0 -240 0 0 240 0 240
-160 0 -160 0 0 -400z"/>
<path d="M1930 560 l0 -240 -240 0 -240 0 0 -160 0 -160 400 0 400 0 0 400 0
400 -160 0 -160 0 0 -240z"/>
</g>
</svg>
