<?xml version="1.0" standalone="no"?>
<!DOCTYPE svg PUBLIC "-//W3C//DTD SVG 20010904//EN"
 "http://www.w3.org/TR/2001/REC-SVG-20010904/DTD/svg10.dtd">
<svg version="1.0" xmlns="http://www.w3.org/2000/svg"
 width="225.000000pt" height="225.000000pt" viewBox="0 0 225.000000 225.000000"
 preserveAspectRatio="xMidYMid meet">

<g transform="translate(0.000000,225.000000) scale(0.100000,-0.100000)"
fill="currentColor" stroke="none">
<path d="M635 1988 c-48 -17 -93 -56 -118 -101 l-22 -42 0 -720 0 -720 24 -42
c54 -95 183 -137 276 -90 58 29 1094 674 1119 696 59 54 83 160 52 234 -23 56
-70 92 -329 254 -139 86 -381 237 -539 335 -158 98 -303 185 -322 193 -40 17
-97 18 -141 3z"/>
</g>
</svg>
