<?xml version="1.0" standalone="no"?>
<!DOCTYPE svg PUBLIC "-//W3C//DTD SVG 20010904//EN"
 "http://www.w3.org/TR/2001/REC-SVG-20010904/DTD/svg10.dtd">
<svg version="1.0" xmlns="http://www.w3.org/2000/svg"
 width="512.000000pt" height="512.000000pt" viewBox="0 0 512.000000 512.000000"
 preserveAspectRatio="xMidYMid meet">

<g transform="translate(0.000000,512.000000) scale(0.100000,-0.100000)"
fill="currentColor" stroke="none">
<path d="M2390 4284 c-597 -74 -1117 -434 -1375 -952 -288 -578 -235 -1256
141 -1783 80 -113 279 -310 391 -389 449 -314 971 -399 1451 -234 105 36 270
120 377 192 106 71 275 220 354 312 52 61 50 60 -39 -26 -298 -285 -597 -440
-938 -485 -117 -16 -342 -6 -460 20 -635 140 -1112 614 -1248 1241 -28 131
-27 459 3 592 66 291 200 547 394 752 231 243 504 393 826 452 131 25 371 24
503 -1 506 -94 887 -415 1038 -875 40 -122 58 -234 72 -445 12 -185 29 -254
78 -315 71 -88 145 -103 228 -47 94 63 122 166 104 386 -39 473 -215 853 -540
1165 -230 219 -482 352 -796 417 -78 16 -145 21 -314 24 -118 2 -231 1 -250
-1z"/>
<path d="M3789 1513 c-13 -16 -12 -17 4 -4 16 13 21 21 13 21 -2 0 -10 -8 -17
-17z"/>
</g>
</svg>
