<?xml version="1.0" standalone="no"?>
<!DOCTYPE svg PUBLIC "-//W3C//DTD SVG 20010904//EN"
 "http://www.w3.org/TR/2001/REC-SVG-20010904/DTD/svg10.dtd">
<svg version="1.0" xmlns="http://www.w3.org/2000/svg"
 width="512.000000pt" height="512.000000pt" viewBox="0 0 512.000000 512.000000"
 preserveAspectRatio="xMidYMid meet">

<g transform="translate(0.000000,512.000000) scale(0.100000,-0.100000)"
fill="currentColor" stroke="none">
<path d="M1980 4513 c-106 -17 -249 -88 -325 -160 -22 -21 -164 -184 -314
-363 -151 -179 -299 -351 -329 -382 -77 -80 -145 -108 -281 -118 -115 -9 -200
-28 -277 -61 -171 -76 -324 -231 -397 -404 -48 -115 -57 -190 -57 -495 0 -296
8 -373 51 -484 51 -130 179 -283 300 -359 113 -71 263 -117 386 -117 94 0 192
-33 254 -85 15 -12 165 -174 333 -359 169 -186 327 -355 352 -377 99 -86 227
-137 364 -146 312 -21 601 198 665 502 22 105 22 2805 0 2910 -61 291 -333
509 -630 503 -38 0 -81 -3 -95 -5z m178 -407 c59 -21 100 -54 130 -106 l27
-45 0 -1395 0 -1395 -27 -45 c-62 -105 -187 -147 -299 -99 -43 19 -92 69 -374
380 -333 367 -370 404 -465 459 -114 67 -219 97 -383 110 -91 6 -118 13 -171
39 -75 37 -128 92 -165 170 l-26 56 0 295 0 295 33 67 c63 128 159 186 331
198 58 5 135 16 171 25 91 23 214 85 287 144 36 30 194 207 384 432 288 341
327 384 373 405 58 27 115 30 174 10z"/>
<path d="M4280 4094 c-74 -32 -120 -102 -120 -183 0 -70 10 -89 93 -183 181
-204 299 -405 376 -638 168 -512 97 -1057 -196 -1510 -61 -94 -105 -149 -204
-256 -91 -99 -110 -176 -64 -265 31 -60 115 -109 185 -109 14 0 48 11 76 24
79 37 259 247 380 447 415 680 417 1550 4 2229 -116 190 -300 407 -375 441
-48 22 -108 23 -155 3z"/>
<path d="M3731 3558 c-50 -25 -96 -89 -106 -148 -11 -62 10 -112 80 -194 81
-96 114 -144 157 -231 185 -367 122 -821 -154 -1120 -71 -77 -91 -117 -91
-180 0 -116 81 -195 199 -195 78 0 124 29 211 132 162 191 262 394 315 641 29
134 31 397 5 530 -23 116 -69 253 -117 354 -81 167 -240 372 -321 413 -51 27
-122 26 -178 -2z"/>
<path d="M3180 3004 c-103 -45 -156 -175 -108 -268 6 -10 25 -38 44 -63 72
-95 71 -174 -6 -278 -33 -45 -51 -80 -55 -109 -26 -171 167 -294 308 -196 112
78 207 284 207 450 0 134 -58 288 -147 390 -74 83 -160 110 -243 74z"/>
</g>
</svg>
