<?xml version="1.0" standalone="no"?>
<!DOCTYPE svg PUBLIC "-//W3C//DTD SVG 20010904//EN"
 "http://www.w3.org/TR/2001/REC-SVG-20010904/DTD/svg10.dtd">
<svg version="1.0" xmlns="http://www.w3.org/2000/svg"
 width="91.000000pt" height="81.000000pt" viewBox="0 0 91.000000 81.000000"
 preserveAspectRatio="xMidYMid meet">

<g transform="translate(0.000000,81.000000) scale(0.100000,-0.100000)"
fill="currentColor" stroke="none">
<path d="M227 599 c-125 -110 -225 -204 -222 -210 4 -5 19 -9 34 -9 21 0 73
38 222 165 107 90 197 164 200 165 4 0 85 -70 180 -156 96 -86 184 -161 196
-166 23 -11 77 -3 71 10 -5 14 -436 402 -445 402 -5 0 -112 -90 -236 -201z"/>
<path d="M717 713 c-4 -3 -7 -28 -7 -54 0 -42 4 -50 40 -83 22 -20 42 -36 45
-36 3 0 5 41 5 90 l0 90 -38 0 c-21 0 -42 -3 -45 -7z"/>
<path d="M289 512 l-164 -137 0 -185 0 -185 122 -3 122 -3 3 108 3 108 69 3
c49 2 72 -1 77 -10 5 -7 9 -57 9 -110 l0 -98 113 0 c75 0 117 4 125 12 8 8 12
64 12 185 l0 172 -157 141 c-87 77 -160 140 -164 140 -3 0 -79 -62 -170 -138z"/>
</g>
</svg>
