<?xml version="1.0" standalone="no"?>
<!DOCTYPE svg PUBLIC "-//W3C//DTD SVG 20010904//EN"
 "http://www.w3.org/TR/2001/REC-SVG-20010904/DTD/svg10.dtd">
<svg version="1.0" xmlns="http://www.w3.org/2000/svg"
 width="91.000000pt" height="89.000000pt" viewBox="0 0 91.000000 89.000000"
 preserveAspectRatio="xMidYMid meet">

<g transform="translate(0.000000,89.000000) scale(0.100000,-0.100000)"
fill="currentColor" stroke="none">
<path d="M15 868 c-3 -7 -4 -168 -3 -357 l3 -344 139 -79 c80 -45 148 -78 160
-76 19 3 21 11 24 75 l3 72 137 3 137 3 3 113 3 112 -31 0 -30 0 0 -85 0 -85
-110 0 -110 0 0 249 0 249 -87 51 -88 51 198 0 197 0 0 -110 0 -110 30 0 31 0
-3 138 -3 137 -298 3 c-233 2 -299 0 -302 -10z"/>
<path d="M697 633 c-4 -3 -7 -26 -7 -50 l0 -43 -89 0 c-91 0 -121 -11 -121
-45 0 -34 30 -45 121 -45 l89 0 0 -44 c0 -25 5 -48 10 -51 12 -7 200 125 200
140 0 9 -181 145 -192 145 -3 0 -8 -3 -11 -7z"/>
</g>
</svg>
