<?xml version="1.0" standalone="no"?>
<!DOCTYPE svg PUBLIC "-//W3C//DTD SVG 20010904//EN"
 "http://www.w3.org/TR/2001/REC-SVG-20010904/DTD/svg10.dtd">
<svg version="1.0" xmlns="http://www.w3.org/2000/svg"
 width="365.000000pt" height="360.000000pt" viewBox="0 0 365.000000 360.000000"
 preserveAspectRatio="xMidYMid meet">

<g transform="translate(0.000000,360.000000) scale(0.100000,-0.100000)"
fill="currentColor" stroke="none">
<path d="M1288 3188 c-50 -58 -1237 -1473 -1266 -1510 -11 -14 80 -94 740
-647 l752 -631 405 2 406 3 657 784 c362 431 658 787 658 791 0 4 -339 292
-752 639 l-753 631 -396 0 -397 0 -54 -62z m791 -5 c-45 -58 -260 -313 -267
-317 -9 -5 -36 16 -285 226 l-128 108 347 0 c328 0 346 -1 333 -17z m-509
-193 c107 -90 194 -169 194 -175 -1 -7 -211 -263 -468 -569 l-467 -556 -365 0
-365 0 20 26 c11 14 291 349 623 744 519 619 605 717 618 706 8 -7 103 -87
210 -176z m1554 -635 l429 -360 -134 -3 c-74 -2 -237 0 -364 3 l-230 7 -470
395 c-258 217 -478 402 -488 412 -18 18 -14 24 128 194 l147 176 277 -232
c152 -128 469 -394 705 -592z m-821 20 c415 -348 475 -401 463 -415 -7 -8
-215 -256 -461 -550 -246 -294 -451 -539 -455 -543 -8 -9 -965 788 -965 803 0
16 920 1109 931 1107 6 -1 225 -182 487 -402z m1237 -439 c0 -10 -1222 -1461
-1231 -1461 -5 0 -103 79 -218 175 -178 149 -207 177 -198 191 7 8 217 259
467 557 l455 542 362 0 c200 0 363 -2 363 -4z m-2496 -473 c116 -97 336 -282
488 -410 l277 -233 -146 -175 c-81 -97 -150 -174 -154 -173 -5 2 -1110 927
-1374 1150 -19 16 -1 17 339 18 l359 0 211 -177z m1011 -848 l196 -165 -342 0
c-324 0 -341 1 -328 18 63 80 262 312 269 312 4 0 96 -74 205 -165z"/>
</g>
</svg>
